<svg width="62" height="62" viewBox="0 0 62 62" fill="none" xmlns="http://www.w3.org/2000/svg">
<path d="M57.0814 15.0546C57.8491 13.3785 57.5516 11.3278 56.173 9.94928L52.0346 5.82147C50.656 4.44291 48.608 4.14269 46.932 4.90504C37.0856 -1.13792 24.6776 -1.09807 14.8631 5.00332C14.2256 4.67129 13.5164 4.48801 12.7753 4.48801C11.5614 4.48801 10.4219 4.96082 9.56391 5.81612L5.4308 9.94922C3.95656 11.4235 3.70958 13.6653 4.68702 15.3972C-1.05844 25.0661 -1.01064 37.1783 4.8092 46.7941C3.70155 48.5472 3.90344 50.8981 5.43342 52.4281L9.56653 56.5612C10.4511 57.4457 11.6145 57.8893 12.7753 57.8893C13.62 57.8893 14.4621 57.6529 15.2005 57.1854C20.0402 60.1152 25.5093 61.6001 30.9894 61.6001C36.3948 61.6001 41.798 60.1551 46.5974 57.2996C47.2695 57.6794 48.0265 57.8919 48.8207 57.8919H48.826C50.0399 57.8919 51.1821 57.4165 52.0401 56.5585L56.1732 52.4254C57.6049 50.9937 57.8759 48.8342 56.9887 47.1235C63.0874 37.3084 63.1246 24.9038 57.0816 15.0547L57.0814 15.0546ZM55.1158 44.9453L47.8323 37.6619C49.4766 33.481 49.5084 28.811 47.9306 24.612L55.2433 17.2993C60.1149 25.887 60.0644 36.4032 55.1158 44.9453H55.1158ZM36.9578 45.2057C36.9286 45.2163 36.8993 45.2322 36.8728 45.2455C35.0294 46.0078 33.0398 46.4063 30.9866 46.4063C26.872 46.4063 23.0047 44.8045 20.0957 41.896C14.0926 35.8928 14.0926 26.1206 20.0957 20.1176C23.0042 17.209 26.8717 15.6073 30.9866 15.6073C35.1014 15.6073 38.9657 17.209 41.8747 20.1176C47.8778 26.1207 47.8778 35.8929 41.8747 41.896C40.4403 43.3303 38.7722 44.4406 36.958 45.2056L36.9578 45.2057ZM50.1144 7.74445L54.2528 11.8723C54.9621 12.5815 54.9621 13.737 54.2528 14.4462L54.2502 14.4488L46.7035 21.9982C45.9253 20.6382 44.9584 19.3553 43.7976 18.1944C42.6475 17.0443 41.3672 16.0721 39.9912 15.2805L47.5324 7.73929C48.2416 7.03005 49.3997 7.03005 50.1143 7.7446L50.1144 7.74445ZM7.35398 11.8723L11.4871 7.73915C12.1724 7.05384 13.3756 7.05119 14.061 7.73915L16.2657 9.94384C16.797 10.4751 17.6576 10.4751 18.1888 9.94384C18.72 9.41259 18.7201 8.55195 18.1888 8.02074L17.0413 6.87324C25.5835 1.92467 36.097 1.87415 44.6799 6.74043L37.3781 14.045C35.362 13.2853 33.2051 12.8842 30.9845 12.8842C28.6656 12.8842 26.4131 13.3225 24.32 14.1486L20.8828 10.7114C20.3515 10.1802 19.4909 10.1802 18.9597 10.7114C18.4285 11.2427 18.4284 12.1033 18.9597 12.6345L21.7381 15.4129C20.4525 16.1779 19.2545 17.1076 18.1707 18.1914C16.9409 19.4212 15.9315 20.7839 15.1293 22.2342L7.34942 14.4543C6.64018 13.7424 6.64283 12.5869 7.35473 11.8724L7.35398 11.8723ZM6.58367 17.5354L13.9338 24.8855C12.4914 28.9256 12.526 33.3746 14.0347 37.3961L6.72473 44.7061C1.96738 36.3122 1.91693 25.9823 6.58395 17.5354H6.58367ZM11.4871 54.6402L7.35398 50.5071C6.63943 49.7926 6.63943 48.6371 7.34866 47.9252C7.34866 47.9252 7.35132 47.9252 7.35132 47.9226L7.38585 47.8881C7.40444 47.8695 7.42304 47.8509 7.44163 47.8323L15.2644 40.0096C16.0453 41.3722 17.0095 42.6552 18.1729 43.816C19.3231 44.9661 20.6034 45.9383 21.9767 46.7272L14.0635 54.6404C13.3543 55.3523 12.1988 55.3523 11.487 54.6404L11.4871 54.6402ZM54.253 50.5018L50.1199 54.6349C49.7746 54.9803 49.315 55.1715 48.8263 55.1715H48.8236C48.3482 55.1715 47.8992 54.9909 47.5592 54.6588L45.7317 52.834C45.2005 52.3027 44.3399 52.3027 43.8086 52.834C43.2774 53.3652 43.2774 54.2259 43.8086 54.7571L44.4568 55.4052C36.0044 60.0749 25.6745 60.0218 17.2833 55.2671L24.5878 47.9625C26.6066 48.7222 28.7634 49.1233 30.9841 49.1233C33.1064 49.1233 35.173 48.7594 37.1147 48.0635L41.0141 51.9628C41.2797 52.2285 41.6277 52.3613 41.9756 52.3613C42.3236 52.3613 42.6716 52.2285 42.9372 51.9628C43.4685 51.4316 43.4685 50.571 42.9372 50.0397L39.7577 46.8602C41.2213 46.0474 42.5813 45.03 43.7952 43.8135C44.8896 42.7191 45.814 41.5158 46.571 40.2408L54.2475 47.9173C54.2501 47.9173 54.2501 47.92 54.2501 47.92C54.962 48.6372 54.962 49.7926 54.2528 50.5019L54.253 50.5018Z" fill="#FB7F43"/>
</svg>
