<svg width="20" height="20" viewBox="0 0 41 41" fill="none" xmlns="http://www.w3.org/2000/svg">
<path d="M37.4641 9.98176C37.966 8.8859 37.7715 7.54509 36.8701 6.64374L34.1643 3.94484C33.2629 3.04348 31.9238 2.84719 30.828 3.34564C24.3901 -0.605456 16.2773 -0.579402 9.86028 3.4099C9.44346 3.19281 8.97973 3.07297 8.4952 3.07297C7.70149 3.07297 6.95646 3.38211 6.39545 3.94133L3.69308 6.6437C2.72917 7.60761 2.56769 9.07339 3.20677 10.2058C-0.54981 16.5276 -0.518555 24.447 3.28666 30.7342C2.56244 31.8804 2.69444 33.4175 3.6948 34.4179L6.39717 37.1202C6.97551 37.6986 7.73619 37.9886 8.49518 37.9886C9.04747 37.9886 9.59803 37.834 10.0808 37.5283C13.2452 39.444 16.8211 40.4148 20.4042 40.4148C23.9385 40.4148 27.4712 39.47 30.6093 37.603C31.0487 37.8514 31.5436 37.9903 32.0629 37.9903H32.0664C32.8601 37.9903 33.6069 37.6794 34.1679 37.1185L36.8702 34.4161C37.8064 33.48 37.9835 32.0681 37.4034 30.9496C41.391 24.5321 41.4153 16.4216 37.4642 9.98186L37.4641 9.98176ZM36.1789 29.5254L31.4167 24.7632C32.4917 22.0296 32.5126 18.9762 31.4809 16.2307L36.2623 11.4494C39.4475 17.0644 39.4144 23.9402 36.1789 29.5254H36.1789ZM24.3065 29.6956C24.2874 29.7025 24.2683 29.713 24.2509 29.7216C23.0457 30.2201 21.7448 30.4806 20.4023 30.4806C17.7121 30.4806 15.1835 29.4333 13.2815 27.5316C9.35645 23.6065 9.35645 17.2171 13.2815 13.2921C15.1832 11.3904 17.7119 10.3431 20.4023 10.3431C23.0927 10.3431 25.6194 11.3904 27.5214 13.2921C31.4464 17.2172 31.4464 23.6066 27.5214 27.5316C26.5835 28.4694 25.4929 29.1954 24.3066 29.6956L24.3065 29.6956ZM32.9088 5.20215L35.6146 7.90105C36.0784 8.36478 36.0784 9.12025 35.6146 9.58398L35.6129 9.58571L30.6786 14.5217C30.1698 13.6325 29.5376 12.7937 28.7786 12.0347C28.0266 11.2827 27.1895 10.647 26.2899 10.1295L31.2206 5.19877C31.6843 4.73505 32.4415 4.73505 32.9087 5.20224L32.9088 5.20215ZM4.95052 7.90105L7.65289 5.19868C8.10097 4.7506 8.8877 4.74887 9.33582 5.19868L10.7773 6.64019C11.1247 6.98754 11.6874 6.98754 12.0347 6.64019C12.382 6.29284 12.3821 5.73012 12.0347 5.38279L11.2844 4.63252C16.8696 1.39697 23.7437 1.36394 29.3555 4.54568L24.5813 9.32166C23.2632 8.82494 21.8529 8.56271 20.401 8.56271C18.8848 8.56271 17.412 8.84927 16.0435 9.38941L13.7961 7.14206C13.4488 6.79471 12.8861 6.79471 12.5387 7.14206C12.1914 7.4894 12.1914 8.05212 12.5387 8.39945L14.3554 10.2161C13.5148 10.7163 12.7315 11.3241 12.0229 12.0327C11.2188 12.8368 10.5588 13.7278 10.0343 14.676L4.94754 9.58926C4.48382 9.1238 4.48555 8.36833 4.95101 7.90113L4.95052 7.90105ZM4.44687 11.6038L9.25263 16.4096C8.30958 19.0511 8.33216 21.96 9.31863 24.5894L4.5391 29.369C1.42858 23.8807 1.39559 17.1267 4.44705 11.6038H4.44687ZM7.65289 35.8643L4.95052 33.1619C4.48333 32.6947 4.48333 31.9392 4.94705 31.4737C4.94705 31.4737 4.94878 31.4737 4.94878 31.472L4.97136 31.4494C4.98352 31.4373 4.99568 31.4251 5.00783 31.413L10.1226 26.2982C10.6332 27.1891 11.2636 28.028 12.0243 28.787C12.7763 29.539 13.6134 30.1746 14.5114 30.6904L9.33747 35.8643C8.87374 36.3298 8.11826 36.3298 7.6528 35.8643L7.65289 35.8643ZM35.6147 33.1584L32.9123 35.8608C32.6866 36.0866 32.3861 36.2116 32.0666 36.2116H32.0648C31.754 36.2116 31.4604 36.0935 31.2381 35.8764L30.0432 34.6833C29.6959 34.3359 29.1332 34.3359 28.7858 34.6833C28.4385 35.0306 28.4385 35.5933 28.7858 35.9407L29.2096 36.3644C23.6831 39.4176 16.9291 39.3829 11.4426 36.2741L16.2186 31.4981C17.5386 31.9949 18.9488 32.2571 20.4007 32.2571C21.7884 32.2571 23.1396 32.0191 24.4091 31.5641L26.9587 34.1137C27.1323 34.2873 27.3598 34.3742 27.5874 34.3742C27.8149 34.3742 28.0424 34.2873 28.2161 34.1137C28.5634 33.7663 28.5634 33.2036 28.2161 32.8563L26.1372 30.7774C27.0941 30.2459 27.9833 29.5808 28.7771 28.7853C29.4926 28.0698 30.097 27.283 30.5919 26.4494L35.6111 31.4686C35.6129 31.4686 35.6129 31.4703 35.6129 31.4703C36.0783 31.9392 36.0783 32.6947 35.6146 33.1584L35.6147 33.1584Z" fill="#FB7F43"/>
</svg>
